<svg xmlns="http://www.w3.org/2000/svg" viewBox="0 0 292.32 101.13" width="125" height="43"><defs><style>.cls-1{fill:#d61b3e;}.cls-2{fill:#6a6c6c;}</style></defs><path class="cls-1" d="M110.3,25.58c0,10,7.38,17.32,19.72,17.32a34.64,34.64,0,0,0,15.18-3.18L149.83,46c-6.39,3.37-12.53,5.15-22,5.15-19.68,0-34.15-9.48-34.15-25.57h0C93.71,9.49,108.18,0,127.86,0c9.43,0,14.86,1.37,21.5,4.22l-4.73,7.24c-5-2.67-9.4-3.22-14.61-3.22-12.34,0-19.72,7.35-19.72,17.31"/><path class="cls-1" d="M185.39,0C166.34,0,152.6,9.49,152.6,25.58s13.74,25.58,32.79,25.58,32.8-9.48,32.8-25.58S204.45,0,185.39,0m0,43.2c-10.48,0-16.26-7.87-16.26-17.63s5.79-17.63,16.26-17.63,16.27,7.88,16.27,17.63S195.87,43.2,185.39,43.2"/><polygon class="cls-1" points="267.72 29.28 267.72 49.86 283.46 49.86 283.46 1.28 267.72 1.28 267.72 19.81 243.65 19.81 243.65 1.28 227.94 1.28 227.94 49.86 243.65 49.86 243.65 29.28 267.72 29.28"/><rect class="cls-1" x="67.64" y="1.29" width="16.58" height="48.58"/><path class="cls-1" d="M20.08,23.52v4.64A123.88,123.88,0,0,1,41.65,49.86H60.21c-6.46-7.59-16.36-16.6-23.66-21.14,8.57-.35,18.11-3.82,18.11-13.65C54.66,2.46,41.18.14,27.55,0.14,16.42,0.14,6.16.66,0,1.16v48.7H15.49V8.5a97.12,97.12,0,0,1,12.13-.65c8,0,12,2.64,12,7.23,0,3.93-1.67,8.63-19.55,8.45"/><path class="cls-2" d="M1.25,64.43h4v3.84h-4V64.43Zm0,7.92h4v19.8h-4V72.35Z"/><path class="cls-2" d="M34.86,92.16V79.44c0-2.41-.75-4.39-3.53-4.39-3.25,0-4.39,3.27-4.39,6.32V92.16H23V79.44C23,77,22.22,75,19.45,75,16.2,75,15,78.31,15,81.37V92.16h-4V76.91a44.7,44.7,0,0,0-.2-4.55h3.72l0.12,3.41A6.45,6.45,0,0,1,20.76,72a5.7,5.7,0,0,1,5.78,4,6.6,6.6,0,0,1,6.06-4c4.31,0,6.25,2.93,6.25,7V92.16h-4Z"/><path class="cls-2" d="M213.62,92.16L213.5,89c-2.83,5.29-12.79,4.73-12.79-2.1,0-5.15,4.93-7.26,12.67-6.89,0,0,.42-3.72-2.12-4.86-1.66-.74-5.21-0.63-8.21,1.14l-0.24-3c4.6-1.9,14.46-3.09,14.46,6.08v8.41a36.63,36.63,0,0,0,.24,4.4h-3.88Zm-3.88-2.5c2.91-.69,3.76-3.62,3.64-7.21,0,0-9-.72-8.75,4.26,0.14,2.92,3,3.46,5.11,2.95"/><path class="cls-2" d="M55.73,92.16L55.61,89c-2.83,5.29-12.79,4.73-12.79-2.1,0-5.15,4.92-7.26,12.67-6.89,0,0,.42-3.72-2.13-4.86-1.66-.74-5.21-0.63-8.21,1.14l-0.24-3c4.6-1.9,14.46-3.09,14.46,6.08v8.41a36.45,36.45,0,0,0,.24,4.4H55.73Zm-3.88-2.5c2.91-.69,3.76-3.62,3.64-7.21,0,0-9-.72-8.75,4.26,0.14,2.92,3,3.46,5.11,2.95"/><path class="cls-2" d="M245.19,100.07l0.24-3.37a12.58,12.58,0,0,0,5.9,1.43c6.85-.11,6.46-5.79,6.46-9.42a7.46,7.46,0,0,1-6.14,3.45c-5.78,0-8-5-8-10,0-5.27,2.26-10.22,8.12-10.22a6.56,6.56,0,0,1,6.22,3.68V72.35h3.8V91c0,11-9.81,11.12-16.55,9M252.87,75c-4.08,0-5,3.88-5,7.21,0,3.09,1,6.89,5,6.89,3.84,0,5.07-3.88,5.07-6.89,0-3.17-1.19-7.21-5-7.21"/><path class="cls-2" d="M65.16,100.07l0.24-3.37a12.6,12.6,0,0,0,5.9,1.43c6.85-.11,6.46-5.79,6.46-9.42a7.45,7.45,0,0,1-6.14,3.45c-5.78,0-8-5-8-10,0-5.27,2.26-10.22,8.12-10.22a6.57,6.57,0,0,1,6.22,3.68V72.35h3.8V91c0,11-9.81,11.12-16.55,9M72.84,75c-4.08,0-5,3.88-5,7.21,0,3.09,1,6.89,5,6.89,3.84,0,5.07-3.88,5.07-6.89,0-3.17-1.19-7.21-5-7.21"/><path class="cls-2" d="M87.57,64.43h4v3.84h-4V64.43Zm0,7.92h4v19.8h-4V72.35Z"/><path class="cls-2" d="M270.06,83.28c0.23,6.92,6.39,7.79,11.88,5.15l0.24,3.09c-8,2.58-16.2,1.06-16.2-9.34,0-5.43,3.45-10.22,8.95-10.22,9.33,0,8.28,11.32,8.28,11.32H270.06ZM275,74.69c-3.37,0-5,3.61-5,6.14h9.39c0-2.81-1.07-6.14-4.44-6.14"/><path class="cls-2" d="M122.51,83.28c0.23,6.92,6.39,7.79,11.88,5.15l0.24,3.09c-8,2.58-16.2,1.06-16.2-9.34,0-5.43,3.45-10.22,8.95-10.22,9.33,0,8.28,11.32,8.28,11.32H122.51Zm4.91-8.59c-3.37,0-4.95,3.61-4.95,6.14h9.38c0-2.81-1.07-6.14-4.44-6.14"/><rect class="cls-2" x="140.54" y="88.08" width="4.24" height="4.08"/><path class="cls-2" d="M158.76,82.18c0-9,8.68-11.91,16.25-9.39L174.77,76c-5-2.31-11.73-.87-11.73,6.22,0,6.87,6.47,8.84,11.77,6.49L175,91.8c-6.27,2.14-16.25.5-16.25-9.62"/><path class="cls-2" d="M189.93,72a6.44,6.44,0,0,0-6.14,3.68V64.43h-4V92.15h4V81.79c0-3.09,1.19-6.74,4.83-6.74,3.4,0,3.92,2.6,3.92,5.42V92.15h4V79.64c0-4.52-1.86-7.68-6.61-7.68"/><path class="cls-2" d="M235.37,92.16V80.47c0-2.77-.51-5.42-3.92-5.42-3.68,0-4.83,3.36-4.83,6.48V92.16h-4V76.91a43.64,43.64,0,0,0-.2-4.55h3.72l0.12,3.41a6.91,6.91,0,0,1,6.42-3.8c4.91,0,6.65,3.13,6.65,7.68V92.16h-4Z"/><path class="cls-2" d="M110.2,92.16V80.47c0-2.77-.51-5.42-3.92-5.42-3.68,0-4.83,3.36-4.83,6.48V92.16h-4V76.91a43.61,43.61,0,0,0-.2-4.55H101l0.12,3.41a6.91,6.91,0,0,1,6.42-3.8c4.91,0,6.65,3.13,6.65,7.68V92.16h-4Z"/><rect class="cls-2" x="288.08" y="88.07" width="4.24" height="4.08"/></svg>